<?xml version="1.0" standalone="no"?>
<!DOCTYPE svg PUBLIC "-//W3C//DTD SVG 20010904//EN"
 "http://www.w3.org/TR/2001/REC-SVG-20010904/DTD/svg10.dtd">
<svg version="1.0" xmlns="http://www.w3.org/2000/svg"
 width="278.000000pt" height="278.000000pt" viewBox="0 0 278.000000 278.000000"
 preserveAspectRatio="xMidYMid meet">
<metadata>
Created by potrace 1.14, written by Peter Selinger 2001-2017
</metadata>
<g transform="translate(0.000000,278.000000) scale(0.100000,-0.100000)"
fill="#000000" stroke="none">
<path d="M2056 2463 c-26 -53 -63 -142 -81 -197 -33 -97 -75 -282 -75 -325 0
-26 -10 -26 -41 -2 -13 10 -52 33 -87 50 -190 96 -481 102 -672 15 l-55 -25
-15 23 c-55 84 -143 188 -227 269 -100 95 -239 199 -267 199 -35 0 -23 -22 36
-61 150 -101 330 -271 403 -383 32 -47 36 -58 25 -71 -23 -28 -1 -28 59 -1
266 119 620 87 825 -75 56 -45 94 -55 57 -15 -21 22 -22 27 -11 87 17 96 58
243 92 328 51 130 98 223 111 219 34 -11 132 -255 144 -360 5 -43 1 -58 -46
-150 -66 -132 -159 -264 -174 -249 -29 29 -22 3 24 -86 66 -132 83 -201 77
-331 -3 -59 -10 -108 -16 -114 -9 -9 -12 -8 -12 4 0 8 -12 27 -26 42 -85 85
-253 -49 -254 -202 0 -67 29 -102 87 -102 36 -1 37 -1 18 -16 -11 -9 -46 -29
-78 -45 -57 -29 -73 -58 -21 -39 37 14 130 12 277 -6 103 -12 139 -13 178 -4
26 7 53 9 59 5 6 -4 18 -1 27 6 13 11 17 10 29 -6 8 -10 14 -29 14 -41 0 -12
10 -28 22 -36 27 -18 21 -28 -62 -114 -90 -92 -191 -157 -309 -199 -42 -14
-42 -14 -52 13 -6 15 -17 61 -25 102 -20 99 -23 108 -33 92 -14 -23 19 -182
80 -384 15 -50 24 -67 32 -59 8 8 5 32 -11 86 -12 41 -22 81 -22 88 0 8 19 20
43 27 121 36 231 111 333 228 76 87 87 111 57 134 -10 7 -25 33 -33 58 -15 44
-16 45 -55 43 -22 -1 -63 -7 -91 -14 -42 -9 -68 -8 -146 5 -53 9 -121 17 -152
17 -31 1 -56 4 -56 8 0 3 19 19 41 35 85 60 158 180 184 303 29 134 11 257
-56 390 l-41 83 40 52 c58 76 103 151 154 253 45 88 108 267 108 304 0 10 -24
40 -52 68 -55 51 -214 173 -227 173 -4 0 -29 -43 -55 -97z"/>
<path d="M394 2348 c-22 -24 -57 -65 -79 -92 l-40 -49 92 -87 c108 -102 231
-189 361 -254 l93 -47 -35 -42 c-47 -58 -94 -154 -113 -235 -9 -37 -17 -68
-18 -70 -1 -1 -44 23 -96 53 -114 68 -464 245 -484 245 -8 0 -15 -6 -15 -14 0
-8 73 -50 178 -101 97 -47 230 -116 294 -153 l117 -66 6 -56 c4 -30 8 -67 11
-81 6 -33 -21 -47 -46 -24 -24 22 -47 19 -66 -9 -10 -16 -27 -26 -47 -28 -24
-2 -33 -8 -35 -25 -2 -14 -11 -23 -25 -25 -17 -2 -23 -11 -25 -38 -2 -19 -12
-43 -23 -53 -10 -10 -19 -19 -19 -21 0 -2 15 -22 34 -45 20 -23 45 -73 60
-117 l25 -76 -22 4 c-12 3 -97 26 -189 52 -178 49 -202 53 -196 34 3 -7 67
-31 144 -54 76 -22 158 -47 182 -55 l42 -14 -22 -25 c-148 -164 -171 -191
-161 -201 7 -7 46 28 121 106 61 63 113 115 116 115 3 0 6 -5 6 -10 0 -6 17
-45 37 -87 l38 -75 -54 -48 c-35 -31 -52 -53 -48 -63 3 -8 53 -54 111 -103 58
-48 106 -89 106 -90 0 -1 -20 -15 -45 -31 -25 -15 -45 -31 -45 -35 0 -20 24
-16 57 9 l36 28 -5 -46 c-5 -43 -3 -47 25 -64 30 -18 31 -18 49 5 25 31 23 75
-7 127 -20 34 -24 51 -19 78 4 21 12 35 21 35 8 0 -9 29 -44 73 -102 126 -145
204 -219 394 -25 65 -56 132 -70 150 l-25 33 25 10 c25 9 36 30 16 30 -5 0
-10 9 -10 21 0 18 4 20 25 15 23 -6 25 -3 25 24 0 28 3 30 35 30 28 0 35 4 35
19 0 28 18 36 39 17 21 -19 42 -21 58 -5 15 15 33 3 33 -22 0 -11 50 -69 124
-141 127 -127 207 -224 241 -296 19 -40 35 -54 35 -31 0 26 -79 160 -137 232
-35 42 -57 77 -51 77 35 0 100 45 124 86 23 39 26 53 22 109 -4 72 -23 105
-78 143 -23 15 -48 22 -80 22 -92 0 -155 -73 -152 -177 1 -33 -2 -51 -8 -48
-6 3 -10 16 -10 28 -1 12 -7 33 -15 47 -19 33 -20 207 -1 276 22 83 68 175
118 238 27 33 48 63 48 68 0 11 -14 10 -27 -3 -14 -14 -154 58 -267 138 -74
52 -76 55 -96 121 -23 78 -40 179 -40 240 0 23 -4 42 -9 42 -5 0 -26 -19 -47
-42z m279 -1817 c53 -64 57 -73 57 -120 0 -28 -4 -51 -9 -51 -10 0 -181 149
-181 158 0 5 71 82 75 82 1 0 27 -31 58 -69z"/>
<path d="M1080 1701 c-57 -30 -83 -76 -78 -139 11 -137 187 -181 260 -65 46
75 15 176 -62 207 -52 21 -77 20 -120 -3z m127 -23 c7 -6 13 -25 13 -44 0 -61
-71 -86 -109 -37 -24 30 -20 58 12 86 21 19 59 16 84 -5z"/>
<path d="M1836 1615 c-89 -83 -41 -255 72 -255 27 0 43 9 74 40 40 40 40 40
36 106 -4 62 -7 69 -41 100 -47 43 -100 47 -141 9z m106 -12 c37 -34 15 -93
-35 -93 -41 0 -57 15 -57 55 0 17 5 36 12 43 17 17 58 15 80 -5z"/>
<path d="M1540 1401 c0 -5 6 -11 13 -13 17 -7 38 2 31 13 -7 12 -44 12 -44 0z"/>
<path d="M1260 1341 c0 -11 13 -30 29 -44 24 -19 32 -38 41 -88 23 -126 85
-219 147 -219 58 0 135 78 187 190 18 38 33 57 56 66 30 13 48 39 36 51 -3 3
-14 -1 -24 -10 -25 -23 -74 -21 -123 3 -35 19 -51 20 -158 14 l-120 -7 -31 32
c-37 36 -40 37 -40 12z"/>
</g>
</svg>
